<mxfile host="app.diagrams.net" modified="2023-09-18T02:39:45.388Z" agent="Mozilla/5.0 (Windows NT 10.0; Win64; x64) AppleWebKit/537.36 (KHTML, like Gecko) Chrome/116.0.0.0 Safari/537.36 Edg/116.0.1938.81" etag="ktrGDWX-ycMUi9vZNMVX" version="21.7.5" type="github">
  <diagram name="페이지-1" id="W_GuoXnU9VPZzK8BfVaY">
    <mxGraphModel dx="2219" dy="1153" grid="1" gridSize="10" guides="1" tooltips="1" connect="1" arrows="1" fold="1" page="1" pageScale="1" pageWidth="827" pageHeight="1169" math="0" shadow="0">
      <root>
        <mxCell id="0" />
        <mxCell id="1" parent="0" />
        <mxCell id="Ewi4ONr6DaGeuIS63GaE-8" value="" style="edgeStyle=orthogonalEdgeStyle;rounded=0;orthogonalLoop=1;jettySize=auto;html=1;entryX=0;entryY=0.5;entryDx=0;entryDy=0;" parent="1" source="Ewi4ONr6DaGeuIS63GaE-1" target="Ewi4ONr6DaGeuIS63GaE-9" edge="1">
          <mxGeometry relative="1" as="geometry">
            <mxPoint x="140" y="380" as="targetPoint" />
          </mxGeometry>
        </mxCell>
        <mxCell id="Ewi4ONr6DaGeuIS63GaE-1" value="Actor" style="shape=umlActor;verticalLabelPosition=bottom;verticalAlign=top;html=1;outlineConnect=0;" parent="1" vertex="1">
          <mxGeometry x="55" y="350" width="30" height="60" as="geometry" />
        </mxCell>
        <mxCell id="Ewi4ONr6DaGeuIS63GaE-2" value="Actor" style="shape=umlActor;verticalLabelPosition=bottom;verticalAlign=top;html=1;outlineConnect=0;" parent="1" vertex="1">
          <mxGeometry x="55" y="870" width="30" height="60" as="geometry" />
        </mxCell>
        <mxCell id="Ewi4ONr6DaGeuIS63GaE-3" value="Actor" style="shape=umlActor;verticalLabelPosition=bottom;verticalAlign=top;html=1;outlineConnect=0;" parent="1" vertex="1">
          <mxGeometry x="650" y="450" width="30" height="60" as="geometry" />
        </mxCell>
        <mxCell id="Ewi4ONr6DaGeuIS63GaE-9" value="엘레베이터 밖" style="ellipse;whiteSpace=wrap;html=1;" parent="1" vertex="1">
          <mxGeometry x="210" y="210" width="120" height="80" as="geometry" />
        </mxCell>
        <mxCell id="Ewi4ONr6DaGeuIS63GaE-14" value="" style="edgeStyle=orthogonalEdgeStyle;rounded=0;orthogonalLoop=1;jettySize=auto;html=1;entryX=0;entryY=0.5;entryDx=0;entryDy=0;" parent="1" target="Ewi4ONr6DaGeuIS63GaE-15" edge="1">
          <mxGeometry relative="1" as="geometry">
            <mxPoint x="85" y="380" as="sourcePoint" />
            <mxPoint x="140" y="380" as="targetPoint" />
          </mxGeometry>
        </mxCell>
        <mxCell id="Ewi4ONr6DaGeuIS63GaE-15" value="엘레베이터 안" style="ellipse;whiteSpace=wrap;html=1;" parent="1" vertex="1">
          <mxGeometry x="210" y="540" width="120" height="80" as="geometry" />
        </mxCell>
        <mxCell id="Ewi4ONr6DaGeuIS63GaE-16" value="내려가는 버튼 누르기" style="ellipse;whiteSpace=wrap;html=1;" parent="1" vertex="1">
          <mxGeometry x="370" y="190" width="120" height="80" as="geometry" />
        </mxCell>
        <mxCell id="Ewi4ONr6DaGeuIS63GaE-18" value="올라가는 버튼 누르기" style="ellipse;whiteSpace=wrap;html=1;" parent="1" vertex="1">
          <mxGeometry x="370" y="300" width="120" height="80" as="geometry" />
        </mxCell>
        <mxCell id="Ewi4ONr6DaGeuIS63GaE-21" value="목적지 선택한다" style="ellipse;whiteSpace=wrap;html=1;" parent="1" vertex="1">
          <mxGeometry x="420" y="430" width="120" height="80" as="geometry" />
        </mxCell>
        <mxCell id="Ewi4ONr6DaGeuIS63GaE-24" value="목적지 취소한다" style="ellipse;whiteSpace=wrap;html=1;" parent="1" vertex="1">
          <mxGeometry x="420" y="530" width="120" height="80" as="geometry" />
        </mxCell>
        <mxCell id="Ewi4ONr6DaGeuIS63GaE-25" value="열림버튼을 누른다" style="ellipse;whiteSpace=wrap;html=1;" parent="1" vertex="1">
          <mxGeometry x="420" y="620" width="120" height="80" as="geometry" />
        </mxCell>
        <mxCell id="Ewi4ONr6DaGeuIS63GaE-27" value="닫힘버튼을 누른다." style="ellipse;whiteSpace=wrap;html=1;" parent="1" vertex="1">
          <mxGeometry x="420" y="740" width="120" height="80" as="geometry" />
        </mxCell>
        <mxCell id="Ewi4ONr6DaGeuIS63GaE-29" value="비상 버튼으로&amp;nbsp;&lt;br&gt;비상 알람 보낸다" style="ellipse;whiteSpace=wrap;html=1;" parent="1" vertex="1">
          <mxGeometry x="415" y="900" width="120" height="80" as="geometry" />
        </mxCell>
        <mxCell id="Ewi4ONr6DaGeuIS63GaE-31" value="비상 알림 취소" style="ellipse;whiteSpace=wrap;html=1;" parent="1" vertex="1">
          <mxGeometry x="265" y="800" width="120" height="80" as="geometry" />
        </mxCell>
        <mxCell id="Ewi4ONr6DaGeuIS63GaE-32" value="(엘레베이터를 처음부터 호출하는 사용자1)" style="text;html=1;strokeColor=none;fillColor=none;align=center;verticalAlign=middle;whiteSpace=wrap;rounded=0;" parent="1" vertex="1">
          <mxGeometry x="5" y="430" width="130" height="50" as="geometry" />
        </mxCell>
        <mxCell id="Ewi4ONr6DaGeuIS63GaE-34" value="" style="endArrow=classic;html=1;rounded=0;exitX=0.5;exitY=0.5;exitDx=0;exitDy=0;exitPerimeter=0;entryX=0;entryY=0.5;entryDx=0;entryDy=0;" parent="1" source="Ewi4ONr6DaGeuIS63GaE-2" target="Ewi4ONr6DaGeuIS63GaE-31" edge="1">
          <mxGeometry width="50" height="50" relative="1" as="geometry">
            <mxPoint x="80" y="910" as="sourcePoint" />
            <mxPoint x="305" y="890" as="targetPoint" />
          </mxGeometry>
        </mxCell>
        <mxCell id="Ewi4ONr6DaGeuIS63GaE-35" value="(관리자)" style="text;html=1;strokeColor=none;fillColor=none;align=center;verticalAlign=middle;whiteSpace=wrap;rounded=0;" parent="1" vertex="1">
          <mxGeometry x="40" y="960" width="60" height="30" as="geometry" />
        </mxCell>
        <mxCell id="Ewi4ONr6DaGeuIS63GaE-36" value="비상 알람 수신" style="ellipse;whiteSpace=wrap;html=1;" parent="1" vertex="1">
          <mxGeometry x="225" y="900" width="120" height="80" as="geometry" />
        </mxCell>
        <mxCell id="Ewi4ONr6DaGeuIS63GaE-38" value="" style="endArrow=classic;html=1;rounded=0;exitX=0.5;exitY=0.5;exitDx=0;exitDy=0;exitPerimeter=0;entryX=0;entryY=0.6;entryDx=0;entryDy=0;entryPerimeter=0;" parent="1" source="Ewi4ONr6DaGeuIS63GaE-2" target="Ewi4ONr6DaGeuIS63GaE-36" edge="1">
          <mxGeometry width="50" height="50" relative="1" as="geometry">
            <mxPoint x="80" y="910" as="sourcePoint" />
            <mxPoint x="495" y="1010" as="targetPoint" />
          </mxGeometry>
        </mxCell>
        <mxCell id="jwat3WP_HzQ005UTxZBz-4" value="" style="endArrow=none;html=1;rounded=0;exitX=1;exitY=0.5;exitDx=0;exitDy=0;entryX=0.5;entryY=0.5;entryDx=0;entryDy=0;entryPerimeter=0;" parent="1" source="Ewi4ONr6DaGeuIS63GaE-21" target="Ewi4ONr6DaGeuIS63GaE-3" edge="1">
          <mxGeometry width="50" height="50" relative="1" as="geometry">
            <mxPoint x="800" y="610" as="sourcePoint" />
            <mxPoint x="850" y="560" as="targetPoint" />
          </mxGeometry>
        </mxCell>
        <mxCell id="jwat3WP_HzQ005UTxZBz-5" value="" style="endArrow=none;html=1;rounded=0;exitX=1;exitY=0.5;exitDx=0;exitDy=0;entryX=0.5;entryY=0.5;entryDx=0;entryDy=0;entryPerimeter=0;" parent="1" source="Ewi4ONr6DaGeuIS63GaE-24" target="Ewi4ONr6DaGeuIS63GaE-3" edge="1">
          <mxGeometry width="50" height="50" relative="1" as="geometry">
            <mxPoint x="625" y="480" as="sourcePoint" />
            <mxPoint x="1000" y="500" as="targetPoint" />
          </mxGeometry>
        </mxCell>
        <mxCell id="jwat3WP_HzQ005UTxZBz-6" value="" style="endArrow=none;html=1;rounded=0;exitX=0.992;exitY=0.375;exitDx=0;exitDy=0;entryX=0.5;entryY=0.5;entryDx=0;entryDy=0;entryPerimeter=0;exitPerimeter=0;" parent="1" source="Ewi4ONr6DaGeuIS63GaE-25" target="Ewi4ONr6DaGeuIS63GaE-3" edge="1">
          <mxGeometry width="50" height="50" relative="1" as="geometry">
            <mxPoint x="625" y="580" as="sourcePoint" />
            <mxPoint x="990" y="490" as="targetPoint" />
          </mxGeometry>
        </mxCell>
        <mxCell id="jwat3WP_HzQ005UTxZBz-8" value="" style="endArrow=none;html=1;rounded=0;exitX=1;exitY=0.5;exitDx=0;exitDy=0;entryX=0.5;entryY=0.5;entryDx=0;entryDy=0;entryPerimeter=0;" parent="1" source="Ewi4ONr6DaGeuIS63GaE-27" target="Ewi4ONr6DaGeuIS63GaE-3" edge="1">
          <mxGeometry width="50" height="50" relative="1" as="geometry">
            <mxPoint x="624" y="660" as="sourcePoint" />
            <mxPoint x="850" y="490" as="targetPoint" />
          </mxGeometry>
        </mxCell>
        <mxCell id="jwat3WP_HzQ005UTxZBz-9" value="" style="endArrow=none;html=1;rounded=0;exitX=1;exitY=0.5;exitDx=0;exitDy=0;entryX=0.5;entryY=0.5;entryDx=0;entryDy=0;entryPerimeter=0;" parent="1" source="Ewi4ONr6DaGeuIS63GaE-29" target="Ewi4ONr6DaGeuIS63GaE-3" edge="1">
          <mxGeometry width="50" height="50" relative="1" as="geometry">
            <mxPoint x="625" y="790" as="sourcePoint" />
            <mxPoint x="860" y="500" as="targetPoint" />
          </mxGeometry>
        </mxCell>
        <mxCell id="jwat3WP_HzQ005UTxZBz-20" value="" style="endArrow=none;html=1;rounded=0;exitX=1;exitY=0.5;exitDx=0;exitDy=0;entryX=0.5;entryY=0.5;entryDx=0;entryDy=0;entryPerimeter=0;" parent="1" source="Ewi4ONr6DaGeuIS63GaE-18" target="Ewi4ONr6DaGeuIS63GaE-3" edge="1">
          <mxGeometry width="50" height="50" relative="1" as="geometry">
            <mxPoint x="625" y="480" as="sourcePoint" />
            <mxPoint x="850" y="490" as="targetPoint" />
          </mxGeometry>
        </mxCell>
        <mxCell id="jwat3WP_HzQ005UTxZBz-21" value="" style="endArrow=none;html=1;rounded=0;exitX=1.017;exitY=0.588;exitDx=0;exitDy=0;entryX=0.5;entryY=0.5;entryDx=0;entryDy=0;entryPerimeter=0;exitPerimeter=0;" parent="1" source="Ewi4ONr6DaGeuIS63GaE-16" target="Ewi4ONr6DaGeuIS63GaE-3" edge="1">
          <mxGeometry width="50" height="50" relative="1" as="geometry">
            <mxPoint x="575" y="350" as="sourcePoint" />
            <mxPoint x="860" y="500" as="targetPoint" />
          </mxGeometry>
        </mxCell>
        <mxCell id="jwat3WP_HzQ005UTxZBz-22" value="(엘레베이터를 중간에 호출하는 사용자2)" style="text;html=1;strokeColor=none;fillColor=none;align=center;verticalAlign=middle;whiteSpace=wrap;rounded=0;" parent="1" vertex="1">
          <mxGeometry x="640" y="540" width="175" height="30" as="geometry" />
        </mxCell>
        <mxCell id="EPBAZvmlNL338WjJrP5A-1" value="" style="endArrow=none;html=1;rounded=0;exitX=1;exitY=0.5;exitDx=0;exitDy=0;entryX=0;entryY=0.5;entryDx=0;entryDy=0;" parent="1" source="Ewi4ONr6DaGeuIS63GaE-36" target="Ewi4ONr6DaGeuIS63GaE-29" edge="1">
          <mxGeometry width="50" height="50" relative="1" as="geometry">
            <mxPoint x="545" y="950" as="sourcePoint" />
            <mxPoint x="790" y="500" as="targetPoint" />
          </mxGeometry>
        </mxCell>
        <mxCell id="EPBAZvmlNL338WjJrP5A-2" value="" style="endArrow=none;html=1;rounded=0;exitX=0.392;exitY=0.025;exitDx=0;exitDy=0;entryX=0.625;entryY=1.025;entryDx=0;entryDy=0;entryPerimeter=0;exitPerimeter=0;" parent="1" source="Ewi4ONr6DaGeuIS63GaE-29" target="Ewi4ONr6DaGeuIS63GaE-15" edge="1">
          <mxGeometry width="50" height="50" relative="1" as="geometry">
            <mxPoint x="550" y="790" as="sourcePoint" />
            <mxPoint x="790" y="500" as="targetPoint" />
          </mxGeometry>
        </mxCell>
        <mxCell id="EPBAZvmlNL338WjJrP5A-3" value="" style="endArrow=none;html=1;rounded=0;exitX=0;exitY=0.5;exitDx=0;exitDy=0;entryX=0.925;entryY=0.2;entryDx=0;entryDy=0;entryPerimeter=0;" parent="1" source="Ewi4ONr6DaGeuIS63GaE-21" target="Ewi4ONr6DaGeuIS63GaE-15" edge="1">
          <mxGeometry width="50" height="50" relative="1" as="geometry">
            <mxPoint x="550" y="480" as="sourcePoint" />
            <mxPoint x="790" y="500" as="targetPoint" />
          </mxGeometry>
        </mxCell>
        <mxCell id="EPBAZvmlNL338WjJrP5A-4" value="" style="endArrow=none;html=1;rounded=0;exitX=0;exitY=0.5;exitDx=0;exitDy=0;entryX=1;entryY=0.413;entryDx=0;entryDy=0;entryPerimeter=0;" parent="1" source="Ewi4ONr6DaGeuIS63GaE-24" target="Ewi4ONr6DaGeuIS63GaE-15" edge="1">
          <mxGeometry width="50" height="50" relative="1" as="geometry">
            <mxPoint x="426" y="491" as="sourcePoint" />
            <mxPoint x="331" y="566" as="targetPoint" />
          </mxGeometry>
        </mxCell>
        <mxCell id="EPBAZvmlNL338WjJrP5A-5" value="" style="endArrow=none;html=1;rounded=0;exitX=0.017;exitY=0.288;exitDx=0;exitDy=0;entryX=0.992;entryY=0.613;entryDx=0;entryDy=0;entryPerimeter=0;exitPerimeter=0;" parent="1" source="Ewi4ONr6DaGeuIS63GaE-25" target="Ewi4ONr6DaGeuIS63GaE-15" edge="1">
          <mxGeometry width="50" height="50" relative="1" as="geometry">
            <mxPoint x="430" y="580" as="sourcePoint" />
            <mxPoint x="340" y="583" as="targetPoint" />
          </mxGeometry>
        </mxCell>
        <mxCell id="EPBAZvmlNL338WjJrP5A-9" value="" style="endArrow=none;html=1;rounded=0;entryX=0.925;entryY=0.838;entryDx=0;entryDy=0;entryPerimeter=0;exitX=0;exitY=0;exitDx=0;exitDy=0;" parent="1" source="Ewi4ONr6DaGeuIS63GaE-27" target="Ewi4ONr6DaGeuIS63GaE-15" edge="1">
          <mxGeometry width="50" height="50" relative="1" as="geometry">
            <mxPoint x="432" y="653" as="sourcePoint" />
            <mxPoint x="339" y="599" as="targetPoint" />
          </mxGeometry>
        </mxCell>
        <mxCell id="EPBAZvmlNL338WjJrP5A-10" value="" style="endArrow=none;html=1;rounded=0;exitX=0.367;exitY=0.013;exitDx=0;exitDy=0;entryX=0.5;entryY=1;entryDx=0;entryDy=0;exitPerimeter=0;" parent="1" source="Ewi4ONr6DaGeuIS63GaE-31" target="Ewi4ONr6DaGeuIS63GaE-15" edge="1">
          <mxGeometry width="50" height="50" relative="1" as="geometry">
            <mxPoint x="442" y="663" as="sourcePoint" />
            <mxPoint x="349" y="609" as="targetPoint" />
          </mxGeometry>
        </mxCell>
        <mxCell id="EPBAZvmlNL338WjJrP5A-11" value="" style="endArrow=none;html=1;rounded=0;entryX=0.983;entryY=0.35;entryDx=0;entryDy=0;entryPerimeter=0;" parent="1" source="Ewi4ONr6DaGeuIS63GaE-16" target="Ewi4ONr6DaGeuIS63GaE-9" edge="1">
          <mxGeometry width="50" height="50" relative="1" as="geometry">
            <mxPoint x="425" y="170" as="sourcePoint" />
            <mxPoint x="330" y="245" as="targetPoint" />
          </mxGeometry>
        </mxCell>
        <mxCell id="EPBAZvmlNL338WjJrP5A-12" value="" style="endArrow=none;html=1;rounded=0;exitX=0;exitY=0;exitDx=0;exitDy=0;entryX=0.983;entryY=0.65;entryDx=0;entryDy=0;entryPerimeter=0;" parent="1" source="Ewi4ONr6DaGeuIS63GaE-18" target="Ewi4ONr6DaGeuIS63GaE-9" edge="1">
          <mxGeometry width="50" height="50" relative="1" as="geometry">
            <mxPoint x="411" y="211" as="sourcePoint" />
            <mxPoint x="338" y="248" as="targetPoint" />
          </mxGeometry>
        </mxCell>
        <mxCell id="EPBAZvmlNL338WjJrP5A-13" value="엘레베이터&lt;br&gt;호출 취소한다" style="ellipse;whiteSpace=wrap;html=1;" parent="1" vertex="1">
          <mxGeometry x="370" y="70" width="120" height="80" as="geometry" />
        </mxCell>
        <mxCell id="EPBAZvmlNL338WjJrP5A-14" value="" style="endArrow=none;html=1;rounded=0;entryX=0.792;entryY=0.075;entryDx=0;entryDy=0;entryPerimeter=0;exitX=0;exitY=0.5;exitDx=0;exitDy=0;" parent="1" source="EPBAZvmlNL338WjJrP5A-13" target="Ewi4ONr6DaGeuIS63GaE-9" edge="1">
          <mxGeometry width="50" height="50" relative="1" as="geometry">
            <mxPoint x="348" y="162" as="sourcePoint" />
            <mxPoint x="285" y="210" as="targetPoint" />
          </mxGeometry>
        </mxCell>
        <mxCell id="EPBAZvmlNL338WjJrP5A-16" value="" style="endArrow=none;html=1;rounded=0;exitX=1;exitY=0.5;exitDx=0;exitDy=0;entryX=0.5;entryY=0.5;entryDx=0;entryDy=0;entryPerimeter=0;" parent="1" source="EPBAZvmlNL338WjJrP5A-13" target="Ewi4ONr6DaGeuIS63GaE-3" edge="1">
          <mxGeometry width="50" height="50" relative="1" as="geometry">
            <mxPoint x="577" y="177" as="sourcePoint" />
            <mxPoint x="920" y="410" as="targetPoint" />
          </mxGeometry>
        </mxCell>
      </root>
    </mxGraphModel>
  </diagram>
</mxfile>
